<svg xmlns="http://www.w3.org/2000/svg" xmlns:xlink="http://www.w3.org/1999/xlink" version="1.1" width="366px" height="230px" viewBox="-0.5 -0.5 366 230" content="&lt;mxfile&gt;&lt;diagram id=&quot;cEHV6OCnfboFrXZKKYNy&quot; name=&quot;Page-1&quot;&gt;rVRNj5swEP01XCPAgU2PTTbZPWylSjn0WBmYgBvDIDNJyP762mDzsWSlrdRwCH7zxvP1GI/tyvZF8br4gRlIL/Sz1mPPXhgGfhzrP4PceyT2gx7IlcgsaQSO4h2cp0UvIoNmRiRESaKegylWFaQ0w7hSeJvTTijnUWuewwI4plwu0V8io6JHN5E/4q8g8sJFDnxrKbkjW6ApeIa3CcT2HtspROrfynYH0jTP9aX3O3xiHRJTUNFXHJ7C3uPK5cUWZxOju6u2OQOlJm3fY9saRUWg9lcdwHQx0NhQhCFkvCkgs4eCSulIpPAMO5SoNFJhpW/fnoSUDvJCFvnm0bjkCcif2AgSWGlbCiaoNlxBkdCDePtASJAIywnhuxS5MRDWGsULSVHp6E4PJgi3lOFyXUdtai7b3Oh2haeTSGGlVZRCTc0qQTz//oMXVXFpkseKrDafNvqskLhN55u5fzkLOx6TI7QTyM7mBbAEUndNcdYNW63XvZf7VkbkNmpPq28VsB4uJtJjcWRlbyWfDzFGVegXK4zHIonXC5Ec+Zm/iWShFV0XPWrtx7GUIsuMz1ZBI9550vkP+upyjbZe9GzuupCec9fmL+nIQj3PfZ7Bg3mZ84GXQprOvoK8gknRGiaqPHS//zTQ2J9NM3Q7YzJL5tZcMd8h/zxIfRw3SWeb7GO2/ws=&lt;/diagram&gt;&lt;/mxfile&gt;"><defs/><g><rect x="68.44" y="-68.56" width="228.13" height="365" fill="none" stroke="none" transform="rotate(90,182.51,113.94)" pointer-events="all"/><path d="M 296.57 257.07 L 122.32 257.07 L 122.32 -68.56 L 296.57 -68.56 Z M 296.57 296.44 L 96.43 296.44 C 75.96 296.44 68.44 275.18 68.44 254.67 L 68.44 -35.4 C 68.44 -53.59 80.94 -68.56 92.89 -68.56 L 109.87 -68.56 L 109.87 256.99 C 106.06 257.07 102.29 256.77 98.42 258.04 C 92.78 260.13 92.28 265.45 93.28 273.91 L 296.57 273.91 Z" fill="#505050" stroke="none" transform="rotate(90,182.51,113.94)" pointer-events="all"/><rect x="45" y="118" width="310" height="110" fill="none" stroke="none" pointer-events="all"/><g fill="#FFFFFF" font-family="Helvetica" text-anchor="middle" font-size="78px"><text x="199.5" y="210.5">SakaLib</text></g></g></svg>